<svg width="512" height="512" viewBox="0 0 512 512" fill="none" xmlns="http://www.w3.org/2000/svg">
<g clip-path="url(#clip0_453_1373)">
<path d="M92.444 405.334C137.609 405.334 174.222 368.721 174.222 323.556C174.222 278.391 137.609 241.778 92.444 241.778C47.2793 241.778 10.666 278.391 10.666 323.556C10.666 368.721 47.2793 405.334 92.444 405.334Z" fill="#ff0900" id="id_108"></path>
<path d="M92.444 405.334C137.609 405.334 174.222 368.721 174.222 323.556C174.222 278.391 137.609 241.778 92.444 241.778C47.2793 241.778 10.666 278.391 10.666 323.556C10.666 368.721 47.2793 405.334 92.444 405.334Z" fill="#fc0d05" id="id_109"></path>
<path opacity="0.25" d="M10.667 323.559C10.7427 345.198 19.3919 365.925 34.7199 381.2C50.048 396.474 70.8052 405.051 92.4445 405.051C114.084 405.051 134.841 396.474 150.169 381.2C165.497 365.925 174.146 345.198 174.222 323.559H10.667Z" fill="#ff0b03" id="id_110"></path>
<path d="M419.556 405.334C464.721 405.334 501.334 368.721 501.334 323.556C501.334 278.391 464.721 241.778 419.556 241.778C374.391 241.778 337.778 278.391 337.778 323.556C337.778 368.721 374.391 405.334 419.556 405.334Z" fill="#fc0d05" id="id_111"></path>
<path opacity="0.25" d="M337.778 323.559C337.854 345.198 346.503 365.925 361.831 381.2C377.159 396.474 397.916 405.051 419.556 405.051C441.195 405.051 461.952 396.474 477.28 381.2C492.608 365.925 501.257 345.198 501.333 323.559H337.778Z" fill="#ff0900" id="id_112"></path>
<path d="M419.556 231.111C410.497 231.106 401.487 232.436 392.816 235.06L341.785 117.333H394.666C396.075 117.347 397.474 117.081 398.78 116.551C400.086 116.021 401.274 115.237 402.275 114.246C403.277 113.254 404.072 112.073 404.614 110.772C405.157 109.472 405.436 108.076 405.436 106.667C405.436 105.257 405.157 103.861 404.614 102.561C404.072 101.26 403.277 100.079 402.275 99.0874C401.274 98.0955 400.086 97.312 398.78 96.7821C397.474 96.2522 396.075 95.9864 394.666 96H325.536C323.767 96.0002 322.026 96.4403 320.47 97.2806C318.913 98.1208 317.59 99.335 316.62 100.814C315.649 102.292 315.061 103.989 314.91 105.751C314.758 107.514 315.047 109.286 315.75 110.909L342.073 171.637H201.773L178.236 117.337H213.336C214.745 117.351 216.144 117.085 217.45 116.555C218.756 116.025 219.944 115.241 220.945 114.25C221.947 113.258 222.742 112.077 223.284 110.776C223.827 109.476 224.106 108.08 224.106 106.671C224.106 105.261 223.827 103.865 223.284 102.565C222.742 101.264 221.947 100.083 220.945 99.0914C219.944 98.0995 218.756 97.316 217.45 96.7861C216.144 96.2562 214.745 95.9904 213.336 96.004H117.38C114.569 96.0312 111.882 97.167 109.904 99.1644C107.926 101.162 106.816 103.859 106.816 106.671C106.816 109.482 107.926 112.179 109.904 114.177C111.882 116.174 114.569 117.31 117.38 117.337H154.98L182.553 180.951L137.653 242.951C120.347 233.249 100.378 229.373 80.699 231.897C61.02 234.42 42.6752 243.209 28.3767 256.963C14.0783 270.718 4.58521 288.708 1.30093 308.275C-1.98335 327.841 1.1155 347.945 10.1394 365.614C19.1632 383.284 33.6331 397.58 51.4097 406.391C69.1863 415.201 89.3262 418.058 108.852 414.538C128.377 411.018 146.252 401.309 159.833 386.846C173.415 372.383 181.982 353.934 184.268 334.226H256C257.686 334.226 259.348 333.827 260.85 333.06C262.352 332.294 263.65 331.182 264.639 329.816L355.973 203.7L373.254 243.566C353.861 254.805 339.215 272.71 332.042 293.945C324.869 315.181 325.658 338.299 334.264 358.996C342.869 379.692 358.703 396.556 378.818 406.445C398.932 416.335 421.955 418.577 443.6 412.754C465.244 406.93 484.034 393.438 496.471 374.791C508.907 356.143 514.142 333.611 511.201 311.391C508.259 289.171 497.342 268.777 480.482 254.007C463.622 239.238 441.968 231.1 419.554 231.109L419.556 231.111ZM192.419 203.7L239.745 312.888H184.271C181.706 290.845 171.286 270.465 154.919 255.479L192.419 203.7ZM162.754 312.889H113.341L142.3 272.907C153.265 283.669 160.443 297.699 162.754 312.889V312.889ZM92.445 394.667C81.6749 394.676 71.0434 392.239 61.3529 387.539C51.6624 382.839 43.166 376 36.5049 367.537C29.8438 359.073 25.1922 349.208 22.9009 338.684C20.6097 328.161 20.7388 317.254 23.2784 306.788C25.818 296.321 30.7018 286.569 37.5613 278.265C44.4208 269.962 53.0767 263.326 62.8757 258.857C72.6748 254.387 83.3609 252.202 94.1278 252.466C104.895 252.731 115.461 255.437 125.029 260.381L83.806 317.3C82.6528 318.892 81.962 320.772 81.8099 322.732C81.6578 324.692 82.0503 326.656 82.9442 328.407C83.838 330.157 85.1983 331.627 86.8749 332.654C88.5515 333.68 90.4792 334.223 92.445 334.223H162.755C160.182 351.033 151.679 366.368 138.783 377.454C125.888 388.54 109.451 394.645 92.445 394.667V394.667ZM258.338 302.143L211.019 192.97H337.405L258.338 302.143ZM419.556 394.667C404.122 394.673 389.106 389.655 376.776 380.373C364.446 371.09 355.472 358.047 351.21 343.213C346.948 328.38 347.629 312.562 353.151 298.15C358.673 283.738 368.735 271.515 381.818 263.327L409.764 327.8C410.907 330.369 413.018 332.382 415.637 333.403C418.257 334.423 421.173 334.369 423.752 333.25C426.332 332.132 428.365 330.041 429.411 327.431C430.457 324.822 430.43 321.905 429.337 319.315L401.377 254.815C411.153 252.23 421.368 251.761 431.34 253.437C441.312 255.113 450.812 258.897 459.206 264.536C467.6 270.175 474.695 277.539 480.017 286.137C485.339 294.735 488.766 304.369 490.069 314.397C491.373 324.425 490.522 334.615 487.575 344.288C484.628 353.961 479.652 362.894 472.978 370.492C466.305 378.089 458.088 384.176 448.876 388.345C439.664 392.515 429.668 394.672 419.556 394.673V394.667Z" fill="black" id="id_113"></path>
</g>
<defs>
<clipPath id="clip0_453_1373">
<rect width="512" height="512" fill="white" id="id_114"></rect>
</clipPath>
</defs>
</svg>